{"title":"Boku no Ita Jikan (2014) Complete (Hardsubbed) BANKAI","uid":9809524,"size":1959488827,"categoryP":"video","categoryS":"tv_shows","magnet":"?xt=urn:btih:5c5ab98a0c655a1c93ac9059ea953637ef7a2ebd&amp;dn=Boku+no+Ita+Jikan+%282014%29+Complete+%28Hardsubbed%29+BANKAI&amp;tr=udp%3A%2F%2Ftracker.openbittorrent.com%3A80&amp;tr=udp%3A%2F%2Fopen.demonii.com%3A1337&amp;tr=udp%3A%2F%2Ftracker.coppersurfer.tk%3A6969&amp;tr=udp%3A%2F%2Fexodus.desync.com%3A6969","seeders":2,"leechers":2,"uploader":"8ankai","files":11,"time":1395504602,"description":"Boku no Ita Jikan (2014)\n &lt;a href=&quot;\nhttp://i.imgur.com/KvM02hw.jpg&quot; rel=&quot;nofollow&quot; target=&quot;_NEW&quot;&gt;\nhttp://i.imgur.com/KvM02hw.jpg&lt;/a&gt;\n &lt;a href=&quot;\nhttp://i.imgur.com/pVANhhX.jpg&quot; rel=&quot;nofollow&quot; target=&quot;_NEW&quot;&gt;\nhttp://i.imgur.com/pVANhhX.jpg&lt;/a&gt;\n\n\nINFO:\nFormat : Renzoku\nGenre : Melodrama\nEpisodes : 11\nBroadcast network : Fuji TV\nTheme song : Harukaze by Rihwa\nEncoder : BANKAI  \nSubtitle : ENGLISH HARDSUBBED\n\nRaws by furransu\nEnglish subtitles by DramaFever (http://www.dramafever.com)\n\n\nCAST:\nMiura Haruma as Sawada Takuto\nTabe Mikako as Hongo Megumi\nSaito Takumi as Mukai Shigeyuki\nKazama Shunsuke as Mizushima Mamoru\nYamamoto Mizuki as Murayama Hina\nNomura Shuhei as Sawada Rikuto\nFukikoshi Mitsuru as Tanimoto\nKoichi Mantaro as Sawada Akio\nAsada Miyoko as Hongo Shoko\nHarada Mieko as Sawada Sawako\n\n\nSYNOPSIS:\nFourth year university student Sawada Takuto is having a tough time looking for a job. The eldest son of the director of a hospital, Takuto's parents had expected him to become a doctor, but they began to focus their hopes on his younger brother Rikuto instead, some time during his junior high school. Although Takuto is popular and good at befriending ladies, he has no confidence that he will be loved and thus avoids deep emotional involvement with anyone. One day, he is informed that he does not have long to live because he is suffering from amyotrophic lateral sclerosis (ALS), an incurable, progressive neurodegenerative disease. Takuto, who had given only vague thoughts to his goals in life, starts to explore what is left of his life and live with a positive attitude.\n\n\nVIDEO INFO:\nFormat : MPEG-4 \nFormat profile : Base Media \nCodec ID : isom \nFile size : 167 MiB \nDuration : 46mn 24s \nOverall bit rate mode : Variable \nOverall bit rate : 502 Kbps \n\nVideo \nFormat : AVC \nFormat/Info : Advanced Video Codec \nFormat profile : &lt;a class=&quot;__cf_email__&quot; href=&quot;/cdn-cgi/l/email-protection&quot; data-cfemail=&quot;b7ffded0dff7fb849986&quot;&gt;[email&amp;#160;protected]&lt;/a&gt;&lt;script cf-hash='f9e31' type=&quot;text/javascript&quot;&gt;\n/* &lt;![CDATA[ */!function(){try{var t=&quot;currentScript&quot;in document?document.currentScript:function(){for(var t=document.getElementsByTagName(&quot;script&quot;),e=t.length;e--;)if(t[e].getAttribute(&quot;cf-hash&quot;))return t[e]}();if(t&amp;&amp;t.previousSibling){var e,r,n,i,c=t.previousSibling,a=c.getAttribute(&quot;data-cfemail&quot;);if(a){for(e=&quot;&quot;,r=parseInt(a.substr(0,2),16),n=2;a.length-n;n+=2)i=parseInt(a.substr(n,2),16)^r,e+=String.fromCharCode(i);e=document.createTextNode(e),c.parentNode.replaceChild(e,c)}}}catch(u){}}();/* ]]&gt; */&lt;/script&gt; \nFormat settings, CABAC : Yes \nFormat settings, ReFrames : 4 frames \nCodec ID : avc1 \nCodec ID/Info : Advanced Video Coding \nDuration : 46mn 24s \nBit rate : 306 Kbps \nMaximum bit rate : 2 091 Kbps \nWidth : 848 pixels \nHeight : 480 pixels \nDisplay aspect ratio : 16:9 \nFrame rate mode : Constant \nFrame rate : 29.970 fps \nColor space : YUV \nChroma subsampling : 4:2:0 \nBit depth : 8 bits \nScan type : Progressive \nBits/(Pixel*Frame) : 0.025 \nStream size : 102 MiB (61%) \n\nAudio \nFormat : AAC \nFormat/Info : Advanced Audio Codec \nFormat profile : LC \nCodec ID : 40 \nDuration : 46mn 24s \nBit rate mode : Variable \nBit rate : 192 Kbps \nMaximum bit rate : 230 Kbps \nChannel(s) : 2 channels \nChannel positions : Front: L R \nSampling rate : 48.0 KHz \nCompression mode : Lossy \nStream size : 63.7 MiB (38%) \n\n\nSCREENSHOT: &lt;a href=&quot;\nhttp://i.imgur.com/gWPr8YH.jpg&quot; rel=&quot;nofollow&quot; target=&quot;_NEW&quot;&gt;\nhttp://i.imgur.com/gWPr8YH.jpg&lt;/a&gt; &lt;a href=&quot;\nhttp://i.imgur.com/H0SkzBT.jpg&quot; rel=&quot;nofollow&quot; target=&quot;_NEW&quot;&gt;\nhttp://i.imgur.com/H0SkzBT.jpg&lt;/a&gt; &lt;a href=&quot;\nhttp://i.imgur.com/iJWK0ik.jpg&quot; rel=&quot;nofollow&quot; target=&quot;_NEW&quot;&gt;\nhttp://i.imgur.com/iJWK0ik.jpg&lt;/a&gt;\n\n\nEnjoy &amp; Please Seed!!","torrent":{"xt":"urn:btih:5c5ab98a0c655a1c93ac9059ea953637ef7a2ebd","amp;dn":"Boku+no+Ita+Jikan+%282014%29+Complete+%28Hardsubbed%29+BANKAI","amp;tr":["udp%3A%2F%2Ftracker.openbittorrent.com%3A80","udp%3A%2F%2Fopen.demonii.com%3A1337","udp%3A%2F%2Ftracker.coppersurfer.tk%3A6969","udp%3A%2F%2Fexodus.desync.com%3A6969"],"infoHash":"5c5ab98a0c655a1c93ac9059ea953637ef7a2ebd","infoHashBuffer":{"type":"Buffer","data":[92,90,185,138,12,101,90,28,147,172,144,89,234,149,54,55,239,122,46,189]},"announce":[],"urlList":[]}}